<?xml version="1.0" standalone="no"?>
<!DOCTYPE svg PUBLIC "-//W3C//DTD SVG 20010904//EN"
 "http://www.w3.org/TR/2001/REC-SVG-20010904/DTD/svg10.dtd">
<svg version="1.0" xmlns="http://www.w3.org/2000/svg"
 width="232.000000pt" height="232.000000pt" viewBox="0 0 232.000000 232.000000"
 preserveAspectRatio="xMidYMid meet">
<metadata>
Created by potrace 1.11, written by Peter Selinger 2001-2013
</metadata>
<g transform="translate(0.000000,232.000000) scale(0.100000,-0.100000)"
fill="#000000" stroke="none">
<path d="M697 2146 c-12 -12 -14 -75 -15 -363 0 -191 -1 -358 -1 -370 -1 -20
-6 -22 -46 -21 l-45 1 -1 71 c0 39 -1 116 -1 171 0 117 -10 155 -43 155 -21 0
-485 -362 -527 -412 -17 -19 -18 -62 -18 -603 0 -517 2 -585 16 -599 14 -14
131 -16 1144 -16 1013 0 1130 2 1144 16 14 14 16 82 16 603 0 510 -2 590 -15
601 -11 9 -90 12 -307 12 l-293 1 -1 263 c0 201 -3 266 -13 278 -18 22 -217
23 -246 2 -18 -13 -20 -30 -20 -277 l0 -264 -42 -3 -43 -3 0 265 c0 227 -2
267 -16 280 -23 24 -236 23 -255 -1 -11 -12 -14 -71 -16 -267 0 -138 -1 -256
-2 -262 -1 -5 -19 -11 -41 -12 l-40 -3 0 369 c0 345 -1 370 -18 385 -25 23
-233 25 -255 3z"/>
</g>
</svg>
